<?xml version="1.0" encoding="utf-8"?>
<!-- Generator: Adobe Illustrator 23.0.3, SVG Export Plug-In . SVG Version: 6.00 Build 0)  -->
<svg version="1.1" id="Layer_1" xmlns="http://www.w3.org/2000/svg" xmlns:xlink="http://www.w3.org/1999/xlink" x="0px"
     y="0px"
     viewBox="0 0 399.66 366.82" style="enable-background:new 0 0 399.66 366.82;" xml:space="preserve">
<style type="text/css">
	.st0 {
        fill: #FFFFFF;
        stroke: #FFFFFF;
        stroke-width: 5.7417;
        stroke-miterlimit: 10;
    }
</style>
    <title>Ресурс 2</title>
    <g>
	<g id="Layer_1-2_11_">
		<path class="st0" d="M287.94,13.56c28.11,0,50.87,9.25,69.66,28.28c18.79,19.03,27.94,41.76,27.94,69.32
			c-0.02,16.52-3.21,32.89-9.39,48.21c-6.31,15.75-18.24,33.81-35.48,53.68c-17.8,20.54-34.11,37.9-48.48,51.66
			c-14.37,13.76-37.46,35.07-70.43,64.96l-22.01,19.89l-21.87-19.04c-41.89-37.63-72.45-66.2-90.83-84.88
			C69,227.32,52.01,205.36,36.52,180.35c-14.86-23.96-22.39-47.26-22.39-69.18c0-27.58,9.14-50.24,27.93-69.31
			s41.53-28.29,69.67-28.29c16.2,0,31.17,3.16,44.47,9.4c13.3,6.24,25.49,15.81,36.2,28.43c1.86,2.2,4.59,3.47,7.47,3.47l0,0
			c2.88,0,5.62-1.27,7.47-3.47c10.65-12.62,22.81-22.18,36.14-28.43C256.81,16.71,271.72,13.56,287.94,13.56 M287.94,3.78
			c-35.49,0-64.86,13.77-88.1,41.3c-23.26-27.53-52.63-41.3-88.1-41.3c-30.61,0-56.15,10.4-76.64,31.21S4.36,81.18,4.35,111.16
			c0,23.86,7.95,48.64,23.86,74.35s33.19,48.04,51.85,66.99c18.65,18.98,49.09,47.43,91.32,85.35l28.45,24.78l28.45-25.7
			c32.42-29.35,55.98-51.07,70.67-65.16c14.69-14.09,31.06-31.53,49.1-52.31c18.04-20.78,30.43-39.6,37.17-56.45
			c6.66-16.47,10.09-34.08,10.1-51.85c0-30-10.25-55.39-30.75-76.18C344.07,14.21,318.52,3.81,287.94,3.78z"/>
	</g>
</g>
</svg>
