<?xml version="1.0" encoding="UTF-8"?>
<svg xmlns="http://www.w3.org/2000/svg" xmlns:xlink="http://www.w3.org/1999/xlink" width="22pt" height="24pt"
     viewBox="0 0 22 24" version="1.1">
    <g id="surface1">
        <path style="fill:none;stroke-width:0.961538;stroke-linecap:round;stroke-linejoin:round;stroke:rgb(100%,100%,100%);stroke-opacity:1;stroke-miterlimit:4;"
              d="M 3.957741 11.489258 L 3.957741 14.083333 " transform="matrix(0.956522,0,0,0.923077,0.956522,0)"/>
        <path style="fill:none;stroke-width:1.105769;stroke-linecap:round;stroke-linejoin:round;stroke:rgb(100%,100%,100%);stroke-opacity:1;stroke-miterlimit:4;"
              d="M 19.606889 24.446589 L 1.050071 24.446589 C 0.511009 24.446589 0.0740412 24.014949 0.0740412 23.485977 L 0.0740412 1.370743 C 0.0740412 0.83754 0.511009 0.410131 1.050071 0.410131 L 19.606889 0.410131 C 20.145952 0.410131 20.587003 0.83754 20.587003 1.370743 L 20.587003 23.485977 C 20.587003 24.014949 20.145952 24.446589 19.606889 24.446589 Z M 19.606889 24.446589 "
              transform="matrix(0.956522,0,0,0.923077,0.956522,0.133136)"/>
        <path style="fill:none;stroke-width:1.105769;stroke-linecap:round;stroke-linejoin:round;stroke:rgb(100%,100%,100%);stroke-opacity:1;stroke-miterlimit:4;"
              d="M 3.982244 3.837865 L 16.6788 3.837865 " transform="matrix(0.956522,0,0,0.923077,0.956522,0.133136)"/>
        <path style="fill:none;stroke-width:1.105769;stroke-linecap:round;stroke-linejoin:round;stroke:rgb(100%,100%,100%);stroke-opacity:1;stroke-miterlimit:4;"
              d="M 3.982244 6.719701 L 16.6788 6.719701 " transform="matrix(0.956522,0,0,0.923077,0.956522,0.133136)"/>
        <path style=" stroke:none;fill-rule:evenodd;fill:rgb(100%,100%,100%);fill-opacity:1;"
              d="M 6.265625 17.15625 L 3.21875 17.15625 C 2.898438 17.15625 2.636719 16.910156 2.636719 16.601562 L 2.636719 14.816406 C 2.636719 14.550781 2.835938 14.328125 3.101562 14.273438 L 3.101562 13.46875 C 3.101562 12.609375 3.835938 11.910156 4.742188 11.910156 C 5.648438 11.910156 6.386719 12.609375 6.386719 13.46875 L 6.386719 14.273438 C 6.648438 14.328125 6.847656 14.550781 6.847656 14.816406 L 6.847656 16.601562 C 6.847656 16.910156 6.585938 17.15625 6.265625 17.15625 M 4.742188 12.722656 C 4.308594 12.722656 3.957031 13.058594 3.957031 13.46875 L 3.957031 14.261719 L 5.527344 14.261719 L 5.527344 13.46875 C 5.527344 13.058594 5.175781 12.722656 4.742188 12.722656 M 4.742188 15.097656 C 4.457031 15.097656 4.226562 15.316406 4.226562 15.585938 C 4.226562 15.765625 4.332031 15.925781 4.484375 16.011719 L 4.484375 16.554688 L 5 16.554688 L 5 16.011719 C 5.152344 15.925781 5.257812 15.765625 5.257812 15.585938 C 5.257812 15.316406 5.027344 15.097656 4.742188 15.097656 "/>
    </g>
</svg>
