<?xml version="1.0" encoding="UTF-8"?>
<svg width="26px" height="26px" viewBox="0 0 26 26" version="1.1" xmlns="http://www.w3.org/2000/svg"
     xmlns:xlink="http://www.w3.org/1999/xlink">
    <!-- Generator: Sketch 54.1 (76490) - https://sketchapp.com -->
    <title>Profile-white</title>
    <desc>Created with Sketch.</desc>
    <g id="Icons_Web+Mobile" stroke="none" stroke-width="1" fill="none" fill-rule="evenodd">
        <g id="Icons_White" transform="translate(-783.000000, 0.000000)">
            <g id="Profile" transform="translate(784.000000, 1.000000)">
                <path d="M22.4242157,16.1796078 C20.9227451,15.1090196 19.2340196,14.3296078 17.4457843,13.8820588 C15.6286275,13.4222549 13.9565686,13.1923529 12.4286275,13.1923529 C10.9011765,13.1923529 9.22862745,13.4222549 7.41196078,13.8820588 C5.62323529,14.3296078 3.9345098,15.1085294 2.43352941,16.1796078 C0.925686275,17.2521569 0.17127451,18.4516667 0.17127451,19.7796078 L0.17127451,24.6815686 L0.93745098,24.6815686 L0.93745098,19.7796078 C0.93745098,18.7070588 1.57078431,17.7315686 2.87372549,16.8026471 C4.30019608,15.7889216 5.90362745,15.0497059 7.60117647,14.6237255 C9.34578431,14.1820588 10.9712745,13.9585294 12.4261765,13.9585294 C13.8815686,13.9585294 15.5085294,14.182549 17.2516667,14.6237255 C18.9487255,15.0497059 20.5506863,15.7889216 21.9761765,16.8026471 C23.2820588,17.7315686 23.9153922,18.7070588 23.9153922,19.7796078 L23.9153922,24.6815686 L24.6810784,24.6815686 L24.6810784,19.7796078 C24.6810784,18.4516667 23.9291176,17.2521569 22.4242157,16.1796078"
                      id="Fill-1" fill="#FFFFFF"></path>
                <path d="M22.4242157,16.1796078 C20.9227451,15.1090196 19.2340196,14.3296078 17.4457843,13.8820588 C15.6286275,13.4222549 13.9565686,13.1923529 12.4286275,13.1923529 C10.9011765,13.1923529 9.22862745,13.4222549 7.41196078,13.8820588 C5.62323529,14.3296078 3.9345098,15.1085294 2.43352941,16.1796078 C0.925686275,17.2521569 0.17127451,18.4516667 0.17127451,19.7796078 L0.17127451,24.6815686 L0.93745098,24.6815686 L0.93745098,19.7796078 C0.93745098,18.7070588 1.57078431,17.7315686 2.87372549,16.8026471 C4.30019608,15.7889216 5.90362745,15.0497059 7.60117647,14.6237255 C9.34578431,14.1820588 10.9712745,13.9585294 12.4261765,13.9585294 C13.8815686,13.9585294 15.5085294,14.182549 17.2516667,14.6237255 C18.9487255,15.0497059 20.5506863,15.7889216 21.9761765,16.8026471 C23.2820588,17.7315686 23.9153922,18.7070588 23.9153922,19.7796078 L23.9153922,24.6815686 L24.6810784,24.6815686 L24.6810784,19.7796078 C24.6810784,18.4516667 23.9291176,17.2521569 22.4242157,16.1796078 Z"
                      id="Stroke-3" stroke="#FFFFFF" stroke-width="0.5"></path>
                <path d="M8.90862745,2.39813725 C9.89098039,1.41529412 11.042451,0.937843137 12.4262745,0.937843137 C13.8105882,0.937843137 14.960098,1.41529412 15.9439216,2.39813725 C16.9267647,3.38098039 17.4051961,4.53735294 17.4051961,5.91627451 C17.4051961,7.29470588 16.9267647,8.45156863 15.9444118,9.43392157 C14.9615686,10.4167647 13.8105882,10.8947059 12.4262745,10.8947059 C11.042451,10.8947059 9.8904902,10.4167647 8.90862745,9.43343137 C7.92676471,8.44960784 7.44784314,7.30156863 7.44784314,5.91627451 C7.44784314,4.5304902 7.92578431,3.38147059 8.90862745,2.39813725 M12.4262745,11.6608824 C14.0096078,11.6608824 15.362549,11.0991176 16.4860784,9.97558824 C17.6096078,8.85205882 18.1708824,7.49911765 18.1708824,5.91627451 C18.1708824,4.33294118 17.6096078,2.98 16.4860784,1.85696078 C15.362549,0.733431373 14.0096078,0.171666667 12.4262745,0.171666667 C10.8434314,0.171666667 9.4904902,0.733431373 8.36696078,1.85696078 C7.24392157,2.98 6.68215686,4.33294118 6.68215686,5.91627451 C6.68215686,7.49911765 7.24392157,8.85205882 8.36696078,9.97558824 C9.4904902,11.0991176 10.8434314,11.6608824 12.4262745,11.6608824"
                      id="Fill-5" fill="#FFFFFF"></path>
                <path d="M8.90862745,2.39813725 C9.89098039,1.41529412 11.042451,0.937843137 12.4262745,0.937843137 C13.8105882,0.937843137 14.960098,1.41529412 15.9439216,2.39813725 C16.9267647,3.38098039 17.4051961,4.53735294 17.4051961,5.91627451 C17.4051961,7.29470588 16.9267647,8.45156863 15.9444118,9.43392157 C14.9615686,10.4167647 13.8105882,10.8947059 12.4262745,10.8947059 C11.042451,10.8947059 9.8904902,10.4167647 8.90862745,9.43343137 C7.92676471,8.44960784 7.44784314,7.30156863 7.44784314,5.91627451 C7.44784314,4.5304902 7.92578431,3.38147059 8.90862745,2.39813725 Z M12.4262745,11.6608824 C14.0096078,11.6608824 15.362549,11.0991176 16.4860784,9.97558824 C17.6096078,8.85205882 18.1708824,7.49911765 18.1708824,5.91627451 C18.1708824,4.33294118 17.6096078,2.98 16.4860784,1.85696078 C15.362549,0.733431373 14.0096078,0.171666667 12.4262745,0.171666667 C10.8434314,0.171666667 9.4904902,0.733431373 8.36696078,1.85696078 C7.24392157,2.98 6.68215686,4.33294118 6.68215686,5.91627451 C6.68215686,7.49911765 7.24392157,8.85205882 8.36696078,9.97558824 C9.4904902,11.0991176 10.8434314,11.6608824 12.4262745,11.6608824 Z"
                      id="Stroke-7" stroke="#FFFFFF" stroke-width="0.5"></path>
            </g>
        </g>
    </g>
</svg>