<?xml version="1.0" encoding="utf-8"?>
<!-- Generator: Adobe Illustrator 23.0.3, SVG Export Plug-In . SVG Version: 6.00 Build 0)  -->
<svg version="1.1" id="Layer_1" xmlns="http://www.w3.org/2000/svg" xmlns:xlink="http://www.w3.org/1999/xlink" x="0px"
     y="0px"
     viewBox="0 0 475 473" style="enable-background:new 0 0 475 473;" xml:space="preserve">
<style type="text/css">
	.st0 {
        fill: #FFFFFF;
        stroke: #FFFFFF;
        stroke-width: 3.744;
        stroke-miterlimit: 10;
    }

    .st1 {
        fill: #FFFFFF;
        stroke: #FFFFFF;
        stroke-width: 3.419;
        stroke-miterlimit: 10;
    }
</style>
    <g>
	<path class="st0" d="M410.82,249.79c0.37-4.89,0.57-9.85,0.57-14.9c0-4.6-0.16-9.12-0.47-13.59l59.57-47.08L406.38,62.77
		l-69.83,28.01c-7.96-5.74-16.4-10.77-25.24-15.02L300.62,1.5H172.38l-10.66,74.25c-8.84,4.25-17.28,9.28-25.24,15.02l-69.83-28
		L2.5,174.23l59.56,47.05c-0.32,4.48-0.47,9.01-0.47,13.61c0,5.05,0.2,10.02,0.56,14.91L2.5,296.77l64.12,111.46l70.74-28.53
		c7.69,5.46,15.83,10.27,24.32,14.36l10.66,75.44h128.25l10.66-75.47c8.51-4.08,16.67-8.88,24.37-14.35l70.75,28.55l64.13-111.46
		L410.82,249.79z M400.64,391.53l-60.03-24.22l-6.74-2.67l-5.92,4.2c-7.07,5.03-14.56,9.45-22.37,13.21l-6.44,3.09l-1.01,7.1
		l-9.07,63.89H183.94l-9.07-63.96l-1-7.09l-6.45-3.1c-7.81-3.77-15.28-8.18-22.35-13.21l-5.92-4.2l-6.74,2.67l-59.96,24.2
		l-52.63-91.31l50.63-39.81l5.61-4.41l-0.53-7.13c-0.36-4.63-0.53-9.36-0.53-13.89c0-4.25,0.15-8.52,0.43-12.68l0.49-7.06
		l-5.54-4.37l-50.55-39.9l52.59-91.41l59.08,23.71l6.78,2.67l5.93-4.27c7.33-5.28,15.1-9.91,23.24-13.83l6.42-3.08l1.01-7.07
		l9.03-62.85h105.17l9.03,62.85l1.03,7.07l6.41,3.09c8.14,3.93,15.91,8.57,23.24,13.87l5.93,4.25l6.78-2.67l59.11-23.71l52.58,91.41
		l-50.51,39.91l-5.54,4.37l0.49,7.06c0.29,4.16,0.44,8.42,0.44,12.66c0,4.59-0.19,9.25-0.53,13.88l-0.55,7.13l5.61,4.41l50.63,39.82
		L400.64,391.53z"/>
        <path class="st0" d="M236.51,135.21c-27.54,0-51.08,9.81-70.62,29.42s-29.31,43.23-29.31,70.87s9.77,51.26,29.31,70.87
		c19.54,19.61,43.08,29.42,70.62,29.42s51.08-9.81,70.62-29.42c19.54-19.61,29.31-43.23,29.31-70.87s-9.77-51.26-29.31-70.87
		S264.04,135.21,236.51,135.21z M297.71,296.91c-17.1,17.16-37.11,25.5-61.2,25.5s-44.12-8.34-61.2-25.51
		c-17.08-17.17-25.41-37.21-25.41-61.4s8.31-44.25,25.42-61.41s37.11-25.5,61.19-25.5s44.08,8.34,61.2,25.5s25.41,37.27,25.41,61.41
		S314.82,279.76,297.71,296.91L297.71,296.91z"/>
        <path class="st1" d="M236.51,174.45c-33.58,0.06-60.78,27.36-60.84,61.05c0.06,33.69,27.26,60.99,60.84,61.05
		c33.58-0.05,60.79-27.35,60.84-61.05C297.3,201.8,270.09,174.49,236.51,174.45z M270.91,270.01
		c-18.93,19.06-49.67,19.12-68.66,0.13c-0.04-0.04-0.08-0.08-0.13-0.13c-18.99-18.98-19.06-49.81-0.15-68.87
		c0.05-0.05,0.1-0.1,0.15-0.15c18.93-19.06,49.67-19.11,68.66-0.11c0.04,0.04,0.08,0.08,0.11,0.11c18.99,19,19.04,49.86,0.11,68.92
		c-0.04,0.04-0.07,0.07-0.11,0.11L270.91,270.01z"/>
</g>
</svg>
