<?xml version="1.0" encoding="UTF-8"?>
<svg width="25px" height="25px" viewBox="0 0 25 25" version="1.1" xmlns="http://www.w3.org/2000/svg"
     xmlns:xlink="http://www.w3.org/1999/xlink">
    <!-- Generator: Sketch 54.1 (76490) - https://sketchapp.com -->
    <title>UserAvatar_Web&amp;Mobile_Nav</title>
    <desc>Created with Sketch.</desc>
    <defs>
        <polygon id="path-1" points="0.0003 0 25 0 25 24.9999 0.0003 24.9999"></polygon>
    </defs>
    <g id="UserAvatar_Web&amp;Mobile_Nav" stroke="none" stroke-width="1" fill="none" fill-rule="evenodd">
        <g id="Group-12">
            <g id="Group-3">
                <mask id="mask-2" fill="white">
                    <use xlink:href="#path-1"></use>
                </mask>
                <g id="Clip-2"></g>
                <path d="M25.0003,12.4999 C25.0003,19.4029 19.4033,24.9999 12.5003,24.9999 C5.5963,24.9999 0.0003,19.4029 0.0003,12.4999 C0.0003,5.5969 5.5963,-0.0001 12.5003,-0.0001 C19.4033,-0.0001 25.0003,5.5969 25.0003,12.4999"
                      id="Fill-1" fill="#B6B7B7" mask="url(#mask-2)"></path>
            </g>
            <path d="M18.6184,14.1581 C17.6994,13.5031 16.6664,13.0261 15.5714,12.7521 C14.4604,12.4711 13.4364,12.3301 12.5014,12.3301 C11.5664,12.3301 10.5434,12.4711 9.4304,12.7521 C8.3364,13.0261 7.3034,13.5031 6.3844,14.1581 C5.4614,14.8141 5.0004,15.5491 5.0004,16.3611 L5.0004,19.3611 L5.4694,19.3611 L5.4694,16.3611 C5.4694,15.7051 5.8564,15.1071 6.6534,14.5401 C7.5264,13.9191 8.5084,13.4671 9.5474,13.2061 C10.6144,12.9351 11.6094,12.7991 12.5004,12.7991 C13.3904,12.7991 14.3864,12.9361 15.4534,13.2061 C16.4914,13.4671 17.4724,13.9191 18.3444,14.5401 C19.1434,15.1071 19.5314,15.7051 19.5314,16.3611 L19.5314,19.3611 L20.0004,19.3611 L20.0004,16.3611 C20.0004,15.5491 19.5394,14.8141 18.6184,14.1581"
                  id="Fill-4" fill="#FEFEFE"></path>
            <path d="M18.6184,14.1581 C17.6994,13.5031 16.6664,13.0261 15.5714,12.7521 C14.4604,12.4711 13.4364,12.3301 12.5014,12.3301 C11.5664,12.3301 10.5434,12.4711 9.4304,12.7521 C8.3364,13.0261 7.3034,13.5031 6.3844,14.1581 C5.4614,14.8141 5.0004,15.5491 5.0004,16.3611 L5.0004,19.3611 L5.4694,19.3611 L5.4694,16.3611 C5.4694,15.7051 5.8564,15.1071 6.6534,14.5401 C7.5264,13.9191 8.5084,13.4671 9.5474,13.2061 C10.6144,12.9351 11.6094,12.7991 12.5004,12.7991 C13.3904,12.7991 14.3864,12.9361 15.4534,13.2061 C16.4914,13.4671 17.4724,13.9191 18.3444,14.5401 C19.1434,15.1071 19.5314,15.7051 19.5314,16.3611 L19.5314,19.3611 L20.0004,19.3611 L20.0004,16.3611 C20.0004,15.5491 19.5394,14.8141 18.6184,14.1581 Z"
                  id="Stroke-6" stroke="#FEFEFE" stroke-width="0.21"></path>
            <path d="M10.347,5.7235 C10.949,5.1215 11.653,4.8295 12.5,4.8295 C13.347,4.8295 14.051,5.1215 14.653,5.7235 C15.254,6.3255 15.547,7.0335 15.547,7.8765 C15.547,8.7205 15.254,9.4285 14.653,10.0305 C14.052,10.6305 13.347,10.9235 12.5,10.9235 C11.653,10.9235 10.948,10.6305 10.347,10.0295 C9.746,9.4275 9.453,8.7245 9.453,7.8765 C9.453,7.0295 9.745,6.3265 10.347,5.7235 M12.5,11.3925 C13.469,11.3925 14.297,11.0485 14.985,10.3615 C15.672,9.6735 16.016,8.8455 16.016,7.8765 C16.016,6.9085 15.672,6.0795 14.985,5.3925 C14.297,4.7045 13.469,4.3615 12.5,4.3615 C11.532,4.3615 10.703,4.7045 10.016,5.3925 C9.328,6.0795 8.985,6.9085 8.985,7.8765 C8.985,8.8455 9.328,9.6735 10.016,10.3615 C10.703,11.0485 11.532,11.3925 12.5,11.3925"
                  id="Fill-8" fill="#FEFEFE"></path>
            <path d="M10.347,5.7235 C10.949,5.1215 11.653,4.8295 12.5,4.8295 C13.347,4.8295 14.051,5.1215 14.653,5.7235 C15.254,6.3255 15.547,7.0335 15.547,7.8765 C15.547,8.7205 15.254,9.4285 14.653,10.0305 C14.052,10.6305 13.347,10.9235 12.5,10.9235 C11.653,10.9235 10.948,10.6305 10.347,10.0295 C9.746,9.4275 9.453,8.7245 9.453,7.8765 C9.453,7.0295 9.745,6.3265 10.347,5.7235 Z M12.5,11.3925 C13.469,11.3925 14.297,11.0485 14.985,10.3615 C15.672,9.6735 16.016,8.8455 16.016,7.8765 C16.016,6.9085 15.672,6.0795 14.985,5.3925 C14.297,4.7045 13.469,4.3615 12.5,4.3615 C11.532,4.3615 10.703,4.7045 10.016,5.3925 C9.328,6.0795 8.985,6.9085 8.985,7.8765 C8.985,8.8455 9.328,9.6735 10.016,10.3615 C10.703,11.0485 11.532,11.3925 12.5,11.3925 Z"
                  id="Stroke-10" stroke="#FEFEFE" stroke-width="0.21"></path>
        </g>
    </g>
</svg>